<svg xmlns="http://www.w3.org/2000/svg" xmlns:xlink="http://www.w3.org/1999/xlink" viewBox="0 0 821.3 231.05"><defs><linearGradient id="linear-gradient" x1="36.47" y1="70.56" x2="89.17" y2="70.56" gradientUnits="userSpaceOnUse"><stop offset="0" stop-color="#63cac7"/><stop offset=".41" stop-color="#61c8c6"/><stop offset=".59" stop-color="#5ac2c0"/><stop offset=".73" stop-color="#4db6b8"/><stop offset=".84" stop-color="#3ba6ab"/><stop offset=".94" stop-color="#24929b"/><stop offset="1" stop-color="#13838f"/></linearGradient><linearGradient id="linear-gradient-2" x1="38.97" y1="160.73" x2="89.17" y2="160.73" xlink:href="#linear-gradient"/><linearGradient id="linear-gradient-3" x1="249.78" y1="115.65" x2="249.78" y2="53.2" gradientUnits="userSpaceOnUse"><stop offset="0" stop-color="#ef712b"/><stop offset=".13" stop-color="#f38136"/><stop offset=".29" stop-color="#f78e3f"/><stop offset=".51" stop-color="#f89545"/><stop offset="1" stop-color="#f99746"/></linearGradient><linearGradient id="linear-gradient-4" x1="144.88" y1="71.06" x2="232.05" y2="71.06" xlink:href="#linear-gradient"/><linearGradient id="linear-gradient-5" x1="162.61" y1="178.09" x2="162.61" y2="88.92" gradientUnits="userSpaceOnUse"><stop offset="0" stop-color="#f99746"/><stop offset=".49" stop-color="#f89545"/><stop offset=".71" stop-color="#f78e3f"/><stop offset=".87" stop-color="#f38136"/><stop offset="1" stop-color="#ef712b"/></linearGradient><linearGradient id="linear-gradient-6" x1="180.34" y1="160.73" x2="240.04" y2="160.73" gradientUnits="userSpaceOnUse"><stop offset="0" stop-color="#13838f"/><stop offset=".06" stop-color="#24929b"/><stop offset=".16" stop-color="#3ba6ab"/><stop offset=".27" stop-color="#4db6b8"/><stop offset=".41" stop-color="#5ac2c0"/><stop offset=".59" stop-color="#61c8c6"/><stop offset="1" stop-color="#63cac7"/></linearGradient><linearGradient id="linear-gradient-7" x1="323.22" y1="160.48" x2="362.94" y2="160.48" xlink:href="#linear-gradient-6"/><linearGradient id="linear-gradient-8" x1="381.3" y1="194.33" x2="381.3" y2="52.95" xlink:href="#linear-gradient-3"/><linearGradient id="linear-gradient-9" x1="455.11" y1="71.06" x2="544.53" y2="71.06" xlink:href="#linear-gradient-6"/><linearGradient id="linear-gradient-10" x1="526.18" y1="178.09" x2="526.18" y2="88.89" xlink:href="#linear-gradient-5"/><linearGradient id="linear-gradient-11" x1="419.64" y1="160.23" x2="507.82" y2="160.23" xlink:href="#linear-gradient"/><linearGradient id="linear-gradient-12" x1="437.38" y1="142.38" x2="437.38" y2="53.2" xlink:href="#linear-gradient-3"/><linearGradient id="linear-gradient-13" x1="601.24" y1="70.56" x2="640.95" y2="70.56" xlink:href="#linear-gradient"/><linearGradient id="linear-gradient-14" x1="732.37" y1="70.56" x2="784.83" y2="70.56" xlink:href="#linear-gradient-6"/><linearGradient id="linear-gradient-15" x1="732.37" y1="160.73" x2="782.33" y2="160.73" xlink:href="#linear-gradient-6"/></defs><g id="Original"><path d="M36.47 87.92v90.92L0 142.38V0h36.47zm88.42 1v53.46l-35.72 35.71H73.69L39 143.37h50.2V87.92H36.47L71.19 53.2h18zm107.16 0h-51.71v54.45h25L240 178.09h-59.7l-35.46-35.71V88.92l35.5-35.72h51.71l35.47 35.72v26.73l-32 32.22-32.23-32.22h28.73zm55.46 53.21V88.67L323 52l.25 91.17h39.72l-34.72 34.72h-5zM399.66 53v141.33l-36.72 36.72-36.47-36.72h36.47V53zm19.98 35.92l35.47-35.72h53.71l35.71 35.72v53.46l-36.71 35.71h-52.71l-35.47-35.71zm88.18 53.46V88.89h-52.71v53.49zm56.7-90.18l36.72 35.72v90.17h-36.72zM641 87.92h-39.76L636 53.2h5l35.7 34.72v91.17L641 143.37zm91.37-34.72h17.74l34.72 34.72h-52.46v55.45h50l-34.72 34.72h-15.28l-35.71-35.71V88.92zM821.3 0h-36.47v178.84l36.47-35.47z" fill="#f99746"/><path fill="url(#linear-gradient)" d="M89.17 53.2v34.72h-52.7L71.19 53.2h17.98z"/><path fill="url(#linear-gradient-2)" d="M89.17 143.37v34.72H73.69l-34.72-34.72h50.2z"/><path fill="url(#linear-gradient-3)" d="M232.05 115.65h35.47V88.92L232.05 53.2v62.45z"/><path fill="url(#linear-gradient-4)" d="M232.05 53.2v35.72h-87.17l35.46-35.72h51.71z"/><path fill="url(#linear-gradient-5)" d="M144.88 88.92h35.46v89.17l-35.46-35.71V88.92z"/><path fill="url(#linear-gradient-6)" d="M180.34 143.37v34.72h59.7l-34.72-34.72h-24.98z"/><path fill="url(#linear-gradient-7)" d="M323.22 143.13v34.71h5l34.72-34.71h-39.72z"/><path fill="url(#linear-gradient-8)" d="M362.94 52.95h36.72v141.38h-36.72z"/><path fill="url(#linear-gradient-9)" d="M455.11 53.2v35.72h89.42L508.82 53.2h-53.71z"/><path fill="url(#linear-gradient-10)" d="M544.53 142.38l-36.71 35.71v-89.2h36.71v53.49z"/><path fill="url(#linear-gradient-11)" d="M507.82 142.38v35.71h-52.71l-35.47-35.71h88.18z"/><path fill="url(#linear-gradient-12)" d="M455.11 142.38h-35.47V88.92l35.47-35.72v89.18z"/><path fill="url(#linear-gradient-13)" d="M640.95 53.2v34.72h-39.71l34.72-34.72h4.99z"/><path fill="url(#linear-gradient-14)" d="M732.38 53.2v34.72h52.45L750.11 53.2h-17.73z"/><path fill="url(#linear-gradient-15)" d="M782.33 143.37l-34.72 34.72h-15.23v-34.72h49.95z"/><path d="M399.66 194.33h-73.19l36.47 36.72 36.72-36.72zm-132.14-78.68h-64.2l32.23 32.22 31.97-32.22z" fill="#63cac7"/><path d="M429.77 206.72h3.38v3.46l-2.8 1.63h-6.85l-2.81-1.63v-13.94l2.81-1.62h6.85l2.8 1.62v3.46h-3.38v-2.17h-5.69v11.37h5.69zm17.06-11.98h3.39v15.44l-2.81 1.63h-7.58l-2.8-1.63v-15.44h3.39v13.92h6.41zm20.35 16.94h-3.73l-3.63-6.38h-2.1v6.38h-3.39v-16.94h9.17l2.81 1.63v7.3l-2.81 1.63zm-9.46-14v4.74h5.2v-4.74zm19.22-.03v14h-3.39v-14H469v-2.91h12.54v2.91zm7.23 14.03v-16.94h3.39v16.94zm10.89-10.96v11h-3.39v-16.98h3.17l7.31 11h.05v-11h3.39v16.94h-3.17l-7.31-11zm34.13 9.34l-2.81 1.62H516v-16.94h10.38l2.81 1.63zm-9.81-12.41v11.13h6.42v-11.13zm13.92 14.03v-16.94h3.39v16.94zm13.55-5.92v-2.91H553v7.33l-2.81 1.63h-6.85l-2.81-1.63v-13.94l2.81-1.62h6.85l2.81 1.62v3.46h-3.39v-2.17H544v11.37h5.69v-3.14zm10.05 5.92v-16.94h3.39v16.94zm14.01-14.03v14h-3.39v-14H563v-2.91h12.53v2.91zm13.87-2.91l6.05 16.94h-3.34L586.2 208h-6.34l-1.28 3.65h-3.34l6-16.94zM583 199l-2.13 6.13h4.28l-2.1-6.13zm10.25 12.68v-16.94h3.39v14h5.78v2.9zm24.17-5.92v-2.91h6.18v7.33l-2.81 1.63h-6.85l-2.81-1.63v-13.94l2.81-1.62h6.85l2.81 1.62v3.46h-3.39v-2.17h-5.69v11.37h5.69v-3.14zm22.9 5.92h-3.73L633 205.3h-2.1v6.38h-3.39v-16.94h9.17l2.81 1.63v7.3l-2.81 1.63zm-9.46-14v4.74h5.2v-4.74zm20.54-2.94l6.05 16.94h-3.34l-1.28-3.68h-6.34l-1.28 3.65h-3.34l6-16.94zm-1.76 4.26l-2.13 6.13h4.28l-2.1-6.13zm23.42 11.06l-2.8 1.62h-10.39v-16.94h10.39l2.8 1.63zm-9.8-12.41v11.13h6.42v-11.13zm20.21 5.44v-6.85l2.81-1.62h6.12l2.81 1.62v3.22h-3.39v-1.93h-5v4h5.54l2.81 1.62v7l-2.81 1.63H686l-2.81-1.63V207h3.39v1.93h5.2v-4.19h-5.54zm19.24 1.33v7.26h-3.39v-16.94h3.39v6.78h6.66v-6.78h3.38v16.94h-3.38v-7.26zm27.35 5.76l-2.81 1.63h-7.57l-2.81-1.63v-13.94l2.81-1.62h7.57l2.81 1.62zm-9.8-12.65v11.37h6.41v-11.37zm34.48-2.79l-4.3 16.94h-3.63l-3-11.44-3.05 11.44H737l-4.31-16.94H736l2.86 11.62 3.14-11.62h3.44l3.1 11.57h.05l2.85-11.57zm12.35 14.04h8v2.9H763.7v-8l2.81-1.62h5.18v-4.45h-4.6v2.18h-3.39v-3.46l2.81-1.63h5.76l2.8 1.63v7l-2.8 1.62h-5.18zm24.32 1.4l-2.81 1.63H782l-2.8-1.63v-13.94l2.8-1.62h6.61l2.81 1.62zm-8.83-12.65v11.37H788v-11.37zm12.94 2.88v-3.17l4.36-2.5h2.9v14h3.88v2.9h-11.14v-2.9h3.87v-10.6zm22.97 11.4H812l-2.42-1.63v-6l2.11-1.21-2.11-1.21v-5.45l2.81-1.62h6.12l2.81 1.62v5.45l-2.11 1.21 2.11 1.21v6zM813 201.47h5v-3.94h-5zm0 7.43h5v-4.52h-5z" fill="#13838f"/></g></svg>