<svg xmlns="http://www.w3.org/2000/svg" xmlns:xlink="http://www.w3.org/1999/xlink" width="1200" height="870" viewBox="0 0 1200 870"><defs><linearGradient id="linearGradient-1" x1="48.6%" x2="51.7%" y1="38.9%" y2="77.6%"><stop offset="0%" stop-color="#E6780F"/><stop offset="100%" stop-color="#D35A06"/></linearGradient><path id="path-2" d="M0 512c283.4-68.7 613.1-288.9 912.6-221.3 1.9 66.1 1.9 139.9 0 221.3-441.4-3.6-745.5-3.6-912.6 0z"/><filter id="filter-3" width="106.6%" height="125.6%" x="-3.3%" y="-12.8%" filterUnits="objectBoundingBox"><feOffset in="SourceAlpha" result="shadowOffsetOuter1"/><feGaussianBlur in="shadowOffsetOuter1" result="shadowBlurOuter1" stdDeviation="10"/><feColorMatrix in="shadowBlurOuter1" values="0 0 0 0 0 0 0 0 0 0 0 0 0 0 0 0 0 0 0.2 0"/></filter><filter id="filter-4" width="178.9%" height="147.3%" x="-39.4%" y="-23.6%" filterUnits="objectBoundingBox"><feOffset dy="2" in="SourceAlpha" result="shadowOffsetOuter1"/><feGaussianBlur in="shadowOffsetOuter1" result="shadowBlurOuter1" stdDeviation="10"/><feColorMatrix in="shadowBlurOuter1" result="shadowMatrixOuter1" values="0 0 0 0 0 0 0 0 0 0 0 0 0 0 0 0 0 0 0.2 0"/><feMerge><feMergeNode in="shadowMatrixOuter1"/><feMergeNode in="SourceGraphic"/></feMerge></filter><linearGradient id="linearGradient-5" x1="26.6%" x2="68.4%" y1="15.9%" y2="89.6%"><stop offset="0%" stop-color="#F29D50"/><stop offset="100%" stop-color="#E3741F"/></linearGradient><filter id="filter-6" width="154.1%" height="126.9%" x="-27%" y="-13.4%" filterUnits="objectBoundingBox"><feOffset dy="2" in="SourceAlpha" result="shadowOffsetOuter1"/><feGaussianBlur in="shadowOffsetOuter1" result="shadowBlurOuter1" stdDeviation="10"/><feColorMatrix in="shadowBlurOuter1" result="shadowMatrixOuter1" values="0 0 0 0 0 0 0 0 0 0 0 0 0 0 0 0 0 0 0.2 0"/><feMerge><feMergeNode in="shadowMatrixOuter1"/><feMergeNode in="SourceGraphic"/></feMerge></filter><linearGradient id="linearGradient-7" x1="0%" x2="50%" y1="12.6%" y2="73.7%"><stop offset="0%" stop-color="#FDB56B"/><stop offset="100%" stop-color="#F26C26"/></linearGradient></defs><g id="layer-02" fill="none" fill-rule="nonzero" transform="translate(314 361)"><g id="Path-2"><use fill="#000" filter="url(#filter-3)" xlink:href="#path-2"/><use fill="url(#linearGradient-1)" xlink:href="#path-2"/></g><path id="Grass-tuft" fill="#E26F0A" d="M111.3 483.6l-37.1-8h44.2L101.6 458l29.2 12.8v-24.3l8 18.6 7.9-34.5v34.5l11.5-8v8l-46.9 18.5z" transform="rotate(17 116.2 457.1)"/><g id="Tree-Copy-2" filter="url(#filter-4)" transform="translate(483 179)"><path id="Path-6" fill="url(#linearGradient-5)" d="M54.8 1c12.7.7 28.8 12.4 42.2 41.2 6.3 13.4 16.2 45.3 10 61.7-17 44.8-92.7 38-104.3-1.6C-8.9 62.7 36.1 0 54.7 1z"/><path id="Path-5" fill="#875F3B" d="M47.4 182l-.3-74.7L28.8 88l1.2-.8 17.1 12.4 2.6-38.9-7.4-7.4.3-.6 7.4 5.9L58.4 36l-4.6 22.6L55.5 82 66 74l.9.7-11 12.5 2.7 32.5 19.9-11.9 1.8 1.4-20.7 16.3 2.7 56.5z" transform="matrix(-1 0 0 1 109 0)"/></g><g id="Tree-Copy" filter="url(#filter-6)" transform="rotate(6 305.2 5824)"><path id="Path-6" fill="url(#linearGradient-7)" d="M79.5.8c27 0 90 90 77.3 184C144 279 24.3 270.6 4 196.6-16 122.6 52.4.8 79.5.8z"/><path id="Path-5" fill="#875F3B" d="M69.6 319.8L69.3 208l-33.1-31.8.3-3.7 32.8 24 4.4-77.2-14.8-15.5 16.1 9.6 5.8-53.6v80.4l21.7-16.7-21.1 24.4 4.4 76.3 24.7-25.1 3.1 2.2-26 34 4 84.5z"/></g></g></svg>