<svg xmlns="http://www.w3.org/2000/svg" xmlns:xlink="http://www.w3.org/1999/xlink" width="1200" height="870" viewBox="0 0 1200 870"><defs><linearGradient id="linearGradient-1" x1="48.3%" x2="47.3%" y1="50%" y2="17.2%"><stop offset="0%" stop-color="#DF7D3D"/><stop offset="100%" stop-color="#FF9A4F"/></linearGradient><path id="path-2" d="M0 328V188.6c250.5 0 287.4-27.6 628.4-123.8 164.5-46.4 435.4-39 607.2-25.2 1.9 110.8 1.9 207 0 288.4C558.9 332 147 332 0 328z"/><filter id="filter-3" width="104.9%" height="119.9%" x="-2.4%" y="-9.9%" filterUnits="objectBoundingBox"><feOffset in="SourceAlpha" result="shadowOffsetOuter1"/><feGaussianBlur in="shadowOffsetOuter1" result="shadowBlurOuter1" stdDeviation="10"/><feColorMatrix in="shadowBlurOuter1" values="0 0 0 0 0 0 0 0 0 0 0 0 0 0 0 0 0 0 0.15 0"/></filter><filter id="filter-4" width="283%" height="219.4%" x="-91.5%" y="-59.7%" filterUnits="objectBoundingBox"><feOffset dy="2" in="SourceAlpha" result="shadowOffsetOuter1"/><feGaussianBlur in="shadowOffsetOuter1" result="shadowBlurOuter1" stdDeviation="10"/><feColorMatrix in="shadowBlurOuter1" result="shadowMatrixOuter1" values="0 0 0 0 0 0 0 0 0 0 0 0 0 0 0 0 0 0 0.2 0"/><feMerge><feMergeNode in="shadowMatrixOuter1"/><feMergeNode in="SourceGraphic"/></feMerge></filter></defs><g id="layer-05" fill="none" fill-rule="nonzero" transform="translate(-9 520)"><g id="Path-2-Copy-6"><use fill="#000" filter="url(#filter-3)" xlink:href="#path-2"/><use fill="url(#linearGradient-1)" xlink:href="#path-2"/></g><g id="Tree-Copy-4" filter="url(#filter-4)" transform="rotate(-1 444.8 -42182.7)"><path id="Path-6" fill="#F29250" d="M20.5.3c14.4-2.6 28.4 15.4 25.4 36.2-3.1 20.9-39.4 21.4-44.3 5C-3.3 25.1 6 3 20.5.3z"/><path id="Path-5" fill="#946B47" d="M19.6 71.1l-.1-34-5.5-6.7 5.5 3.2 2.1-21.5 1.8 13.5 3.1-1.6-2.9 3.9L24.7 42l6.3-3.1-5.7 6.5 1.2 25.7z" transform="matrix(-1 0 0 1 45 0)"/></g><g id="Bushes-Copy" transform="rotate(7 -592.8 3788.2)"><path id="Combined-Shape" fill="#E37D32" d="M7 43.4V45c-.5 3.8-6 3.9-6.8 1-.7-3 .6-5.5 2.8-6h1.4c-1.5-5.7 1.3-10.5 6-11.4 4.7-1 9.4 2.4 8.4 9.9-.7 5.7-7.8 7.2-11.8 4.9z"/><path id="Combined-Shape" fill="#EE883C" d="M52.3 27c-1.4 2.6-4.7 3.4-7.3 2.8-2.2 6.8-10.2 9-16 7.2-.5 3.8-6 3.9-6.8 1-.5-2.2 0-4 1.1-5l-1-2.4c-2.5-9.9 2-18.1 9.6-19.7 5.2-1 10.3 1.2 12.6 6.8a6.2 6.2 0 0 1 4.8-.3 8 8 0 0 1 6.1-6.2c3.6-.8 7.2 1 8.3 5.5.4-.3.8-.5 1.3-.6 2.2-.5 4.4 1.2 4 5-.4 2.8-3.7 3.5-5.6 2.4-1.7 4.4-7.5 5.5-11.1 3.6z"/><path id="Combined-Shape" fill="#E37D32" d="M87.3 14.2c-2.2 2.7-6.4 3.4-9.5 2.2-1 4.7-8.5 4.7-9.5.7s.8-7.3 4-8a5 5 0 0 1 1.4 0c.1-1.2.3-2.2.7-3.1-1 0-2-.5-2.3-1.6-.5-2.2.5-4 2-4.3 1.4-.3 2.7.5 2.9 2.4.9-.7 2-1.2 3.1-1.4 4.2-.8 8.4 1.7 8.6 7.5l1.3-.5c2.2-.5 4.4 1.2 4 5-.5 3.6-5.7 3.8-6.7 1z"/></g><g id="Bushes-Copy-3" transform="scale(-1 1) rotate(42 -414.4 -882.7)"><path id="Combined-Shape" fill="#E1771E" d="M77 19v.5c-.6 2.8-7.7 2.9-8.6.7-1-2.2.7-4 3.5-4.4h2c-1.4-4.5 1.8-8.2 7-9 5.3-.7 10.6 2 9.5 8.1-.9 4.6-8.8 5.8-13.3 4z" transform="scale(-1 1) rotate(40 0 -203.7)"/><path id="Combined-Shape" fill="#E37D32" d="M59.4 26.1c-1 1.5-3 2-4.9 2l-.1 1.5c-1.3 9-16 9.5-19 3-1.5.8-3.9.3-4.3-1.5-.6-2.5.5-4.7 2.4-5 .4-.2.8-.2 1.2 0 .7-4.7 4-8 8.4-9 3-.5 6.2.2 8.4 2.2a5 5 0 0 1 3.2-2.2c1-.2 2 0 3 .4a7 7 0 0 1 5-5c3-.7 6.1.9 7.1 4.6a3 3 0 0 1 1-.4c1.9-.4 3.8 1 3.4 4.4-.3 2.3-2.9 3-4.5 2.2-1.6 4.2-7.2 5-10.3 2.8z" transform="scale(-1 1) rotate(47 0 -96.3)"/><path id="Combined-Shape" fill="#D97227" d="M26.4 45c-2.4 3.2-7.3 4-10.8 2.7-1.3 5.3-9.7 5.2-10.9.8-1.2-4.7 1-8.5 4.6-9.2.5-.1 1-.2 1.6-.1.3-4.7 3.2-8.2 7.3-9 1-.2 1.8-.3 2.7-.2.2-1.5 1.1-2.6 2.4-2.9 1.8-.4 3.6 1 3.2 4.3 0 .5-.2 1-.5 1.3 1.2 1.5 2 3.5 2 6a4 4 0 0 1 1.5-.6c2.5-.5 5 1.4 4.5 5.7-.5 4.1-6.5 4.3-7.6 1.3z" transform="scale(-1 1) rotate(46 0 -6)"/></g></g></svg>