<svg xmlns="http://www.w3.org/2000/svg" width="1200" height="560" viewBox="0 0 1200 560"><defs><linearGradient id="linearGradient-1" x1="50%" x2="50%" y1="-10.8%" y2="93%"><stop offset="0%" stop-color="#5ECACC"/><stop offset="100%" stop-color="#12818F"/></linearGradient><linearGradient id="linearGradient-2" x1="50%" x2="33.4%" y1="-10.8%" y2="100%"><stop offset="0%" stop-color="#B7E1B6"/><stop offset="100%" stop-color="#1C9283"/></linearGradient></defs><g id="leaves" fill="none" fill-rule="nonzero"><g id="leaf-04" transform="translate(0 197)"><path id="Path-18" fill="url(#linearGradient-1)" d="M45 40c11-68 68-24 112-39-27.2 35.4-86 66-112 39z"/><path id="Path-18-Copy" fill="#78624E" d="M45 40c31-30 52-16 96-31-42 17-72 2-93 33-14 2-43 10-48-9 1-1 2-2 4-3-4 19 32 14 41 10z"/></g><g id="leaf-03" transform="translate(28 327)"><path id="Path-18" fill="url(#linearGradient-2)" d="M30.3 43.5c-6-51 67-49 104.6-35-11.6 43-85.6 65-104.6 35z"/><path id="Path-18-Copy" fill="#78624E" d="M30 44c31-30 52-16 96-31-42 17-73 3-94 34-13 8-22 7-32 7 1-1 0-2 1-3 4 0 24 2 29-7z"/></g><g id="leaf-02" transform="translate(23 459)"><path id="Path-18" fill="url(#linearGradient-1)" d="M23 24C19.1 13.4 25.7 3.7 43 1c13.7-2.2 27 10 47.5 4.9C85 30 61 41.3 43 41c-12.5-.2-22-8-20-17z"/><path id="Path-18-Copy" fill="#78624E" d="M24 23c15 0 34 0 58-12-25 15-46.5 14-58 14-14-3-19-6-24-9 1-1 1-2 1-3 3 2 7.7 7 23 10z"/></g><path id="leaf-01" fill="url(#linearGradient-2)" d="M.1 16.2C-2-2.8 25-2 39 3.2c-4.3 16-31.7 24.2-38.8 13z" transform="translate(75 279)"/><path id="path-01" stroke="#979797" d="M-87 61c63 132 329.3 275.6 486 268 156.7-7.6 270.1-35 236.1-132-34-96.9-150-68-186-16s9 172.9 140 180.9S789 306 1042 393c56 22.7 141.7 78.3 257 167"/><path id="path-02" stroke="#979797" d="M-68-68C64 264 384 299 464 299s215.4-69.3 119-137c-96-67.4-120 152-15 215 60 36 275-23.8 344-12 125.8 21.6 241.1 86.6 346 195"/><path id="path-03" stroke="#979797" d="M-87 60c446 26 455 450.1 635 353.6 180-96.6 35-283.8-68-199.2-103 84.6 157.2 135.1 194 131 227-26 395 175.9 512 162.9 78-8.7 146-28 204-58"/><path id="path-04" stroke="#979797" d="M-62-93c93.3 285.4 240 434 440 446 118.6 7.2 208-48 200-151-4.7-61-195.4-99.4-143 49 53 150 266.4 114 336 114 114.7 0 291 65 529 195"/></g></svg>